<svg xmlns="http://www.w3.org/2000/svg" viewBox="0 0 32 32">
  <rect width="32" height="32" rx="4" fill="#0d0b08"/>
  <path d="M16 3 C13 7 9 11 11 17 C12 20 14 21.5 15 19.5 C15 23.5 12 25.5 11 28 C14 26.5 19 24.5 19 19.5 C20 21.5 21 22.5 23 21.5 C23 17.5 21 13.5 23 9.5 C20 12 18 10 16 3Z" fill="#c8432b"/>
  <path d="M16 11 C15 14 14 16 15 18.5 C15.5 20 16.5 20 17 18.5 C17 20.5 16 21.5 16 22.5 C17.5 21.5 19 19.5 18 17.5 C18.5 18.5 19.5 19 20 18.5 C19.5 15.5 18 13.5 16 11Z" fill="#d4a855"/>
</svg>
